<svg xmlns="http://www.w3.org/2000/svg" viewBox="0 0 100 100">
<!-- SVG created with Arrow, by QuiverAI (https://quiver.ai) -->
  <style type="text/css">.cls-0 {fill:#303030;}</style>
  <path class="cls-0" d="m98.3 39.1c-0.6-1.9-2.4-3.7-4.9-4.1l-23.8-3.2c-2.1-0.3-4.1-1.8-5.2-4.1l-9.4-20.3c-0.9-2.2-2.7-3.4-5-3.7-2.2 0-4.2 1-5.2 3.4l-9.2 20.9c-0.9 2.1-3 3.6-5.1 3.8l-23.9 3c-2.5 0.3-4.3 2-4.7 4-0.5 1.7 0.1 4 1.7 6.3l17.1 14.6c2.2 1.8 3.1 3.9 2.2 7.7l-4.9 22.2c-0.4 2.2 0.3 4.1 2 5.5 1.7 1.5 4.5 1.5 6.6 0.4l19.8-11.5c2.1-1.3 4.7-1.5 7-0.2l20.2 11.7c0.9 0.5 1.9 0.8 2.9 0.8 1.3 0 2.4-0.4 3.3-1.1 1.6-1.2 2.5-3.4 2-5.8l-4.7-22.6c-0.6-3.2 0.3-5.3 2.5-7.1l16.5-14c1.8-1.6 2.5-3.2 2.3-5.3l-0.1-1.3zm-3.4 4.6-16.9 14.3c-2.6 2.2-3.9 5.2-2.9 9.8l4.5 22c0.5 2.3-1.8 5.5-5.2 3.7l-20-11.5c-2.5-1.6-6-1.8-8.9 0l-19.9 11.5c-3 1.5-5.6-0.1-5.5-3.1l4.9-22.8c0.9-4.5-0.4-7.2-3-9.5l-16.9-14.1c-1.5-1.3-1.5-2.5-1.3-3.8 0.3-1.2 1.6-2.7 3.3-2.9l23.8-3.1c3-0.3 5.7-2.3 6.9-5.3l8.6-19.9c0.7-1.6 1.6-3 3.5-3 1.7 0 2.6 0.9 3.1 1.9l9.4 20.7c1.2 3 3.6 5.3 6.7 5.6l24.3 2.9c1.5 0.3 3 1.8 2.9 3.5 0 1.5-0.7 2.3-1.4 3z"/>
</svg>
