<svg xmlns="http://www.w3.org/2000/svg" viewBox="0 0 144 124.7">
<!-- SVG created with Arrow, by QuiverAI (https://quiver.ai) -->
  <style type="text/css">.cls-0 {fill:#5B5C60;}
.cls-1 {fill:#414042;}
.cls-2 {fill:#101011;}
.cls-3 {fill:#282829;}
.cls-4 {fill:#0F0F10;}
.cls-5 {fill:#383838;}
.cls-6 {fill:#6D6E70;}
.cls-7 {fill:#D1D2D3;}
.cls-8 {fill:#6E6F71;}
.cls-9 {fill:#4F4F51;}
.cls-10 {fill:#E6E7E7;}
.cls-11 {fill:#808384;}
.cls-12 {fill:#8F9192;}
.cls-13 {fill:#777979;}
.cls-14 {fill:#969899;}
.cls-15 {fill:#D0D2D3;}
.cls-16 {fill:#595A5C;}
.cls-17 {fill:#E6E7E8;}</style>
  <rect class="cls-0" width="144" height="124.7"/>
  <path class="cls-1" d="m0 112.2v12.5h144v-4.1l-27.7-18.6c-5.8-3.5-13.5 6.8-31.3 3-9.1-1.9-12.2-7.6-16.2-6-7.3 3-12.6 7.5-23.8 5.9-5.9-0.8-14.5-6.6-18.9-6.6s-18.4 8.2-26.1 13.9z"/>
  <path class="cls-2" d="m112.6 98.7 31.4 19.2v-17.9l-6.5-6c-5.2 1.8-12.3 7.5-22.4 6l-2.5-1.3z"/>
  <path class="cls-3" d="m113.3 98.7 30.7 19.3v-19.2l-6.5-4.8c-4.4 1.5-11 5.9-19.9 5.5l-4.3-0.8z"/>
  <path class="cls-4" d="m25.9 93.8-25.9 16.7v-1.5l25.4-15.7 0.5 0.5z"/>
  <path class="cls-2" d="m117.6 96.8c-4.8 1.3-11.1 4.6-18.6 5.8-13.6 2-25.6-5.1-25.9-17.5l19.3-0.5 4.1 3 8.6-4.5 1.4 1 0.1 4.5 2.9 4.7 8.1 3.5z"/>
  <path class="cls-5" d="m117.6 96.8c-4.8 1.3-11.1 4.6-18.6 5.5-13.6 1.8-25.6-4.8-25.9-17.2l19.3-0.5 4.2 2.5 0.8-0.8 0.1-1.2 7.6-2.5 1 0.5c1 1.8-0.7 5.5 3.4 8.7 2.1 1.7 5 3 8.1 3.3v1.7z"/>
  <path class="cls-2" d="m26.1 93.8c8.3 4.3 15.4 9 24.5 8.8 6.3-0.1 11.8-1.1 16.8-6.3l1.7-2.8-2.5 2.4-13.3 0.4-1.7-11.7c-2.5 0.5-6-0.5-9-2l-5.6-2.7-6.4 3.2-4.5 10.7z"/>
  <path class="cls-5" d="m26.6 94.1c8.3 4.2 14.9 8.4 24 8.2 6.3-0.2 10.3-1 15.5-5.2l0.5-1.2-13.2 0.4-1.5-11.9c-2.5 0.5-6.3-0.3-9.4-2.3l-5.4-2.6-6 3.6-4.5 11z"/>
  <path class="cls-4" d="m42.4 82.1 1 0.5c4-2.1 8.7-4 12.7-5.5l-0.5-0.8-13.2 5.8z"/>
  <path class="cls-6" d="m0 77.9v10.9l9-6.2-4.9-3.5-4.1-1.2z"/>
  <path class="cls-2" d="m0 78.1v-0.5l4.1 1 5 3.5-0.7 0.7-8.4-4.7z"/>
  <path class="cls-7" d="m0 90v19l25.6-15.7-16.5-10.7-9.1 7.4z"/>
  <path class="cls-8" d="m8.6 82.6 0.5-0.5 16.5 11.2-1 0.5-16-11.2z"/>
  <path class="cls-7" d="m25.6 72.5 10.8 6.1 6 3.5c3.1-2.1 8.7-4.5 13.2-6l-11.5-12.5c-5.2 1.3-10.7 4.5-18.5 8.9z"/>
  <path class="cls-9" d="m0 61.1c7.6 0.3 12.1 3 16.6 5.5l9 5.5 10.8 6.3c-2.3 0-4.3 1.5-5.3 5.4-0.6 2.8-2.5 7.1-5.5 8.8l-17.5-10.7c-2.5-1.5-5-3.3-8.1-4v-16.8z"/>
  <path class="cls-7" d="m0 61.1c7.6 0.3 12.1 3 16.6 5.5l19.8 11.5c-2.3 0-4.5 1.5-5.3 5.5-0.6 2.8-2.5 6.3-5.7 9.3l-17.3-10.3c-2.5-1.5-5-4-8.1-4.7v-16.8z"/>
  <path class="cls-7" d="m99.9 68.4 14.5 8.2c3 1.8 6.2 2.4 10 1 3.5-1.2 12.5-6 19.6-9.7v18.2c-5.9 2.9-12.5 7-17.4 8.5-7 2-20 2-20.5-8 0-2 0.3-4.7-2-6-2.5-1.2-6.7-0.2-7 6.3l-6-3.5-9.5-7.3 18.3-7.7z"/>
  <path class="cls-10" d="m100.4 68.6 14 8c3 1.8 6.2 2.4 10 1 3.5-1.2 12.5-6 19.6-10.2v18.5c-5.9 2.9-12.5 6.7-17.4 8.2-7 2-20.2 2-20.2-8.7 0.2-6-4.3-6.5-6.3-5.5-2 1.1-3 3-3 6.7l-6-3.5-9.5-7 18.8-7.5z"/>
  <path class="cls-11" d="m100.5 68.4 0.1 0.5c-0.7 3.7-6.5 8-13.2 8-2.9 0-4.3-0.3-4.3-0.3l-0.5-0.5 17.9-7.7z"/>
  <path class="cls-12" d="m43.6 64.6c-0.5 5 4 10.5 10 11.8l2.5 0.2 0.3-0.2-0.3-0.3-12.5-11.5z"/>
  <path class="cls-13" d="m63.6 54.1c-0.2 6 1.3 10 6.3 16.3l2 2.1 1-0.1 0.2-0.5-9.5-17.8z"/>
  <path class="cls-14" d="m80.6 52.1c0.8 5.5-0.7 11.5-7.5 19.8l0.3 0.5 1-0.5c4.5-5.5 8-11.3 7.2-18.3l-1-1.5z"/>
  <path class="cls-15" d="m80.6 50.6c-1.2-3.5-4-7.5-8.2-7.5-4.5 0-8 4.3-8.7 9.3-0.3 2.7 0.2 6.2 1.4 8.7 1.5 3.3 5.8 9 6.5 9.8 0.5 0.5 1 0.5 1.5 0 5.3-6.3 7-9.3 7.4-13.3 0.4-2.2 0.6-5 0.1-7z"/>
  <path class="cls-16" d="m43.6 67.1c1 4.3 6 9.3 12.8 9.5 4.5 0.3 7.7-0.7 13.2-2.2 0.5 0 0.5-1.5 0.3-2l-26.3-5.3z"/>
  <path class="cls-17" d="m43.4 64.4c-1 5.5 5.5 10.2 10.7 11 5 1 10.3-0.5 15.5-2 0.5-0.3 0.5-0.8 0.3-1.3-2-4.2-6.3-9.7-11-12-5.8-2.7-14-2-15.5 4.3z"/>
  <path class="cls-17" d="m74.4 72.1c-0.3 0.8 0 2 0.2 2.3 5 1 8.5 1.5 12 1.2 8 0 15.3-5 14.8-11.2-0.5-4.5-7.3-7.8-14.3-5-5 2-10 7-12.7 12.7z"/>
  <path class="cls-12" d="m74.1 72.9 0.3 1.5 8.2 2.2c4.3 0.3 12.3 0.5 17.3-5.2l1-2.3-0.5-63.1"/>
</svg>
