<svg xmlns="http://www.w3.org/2000/svg" viewBox="0 0 150 150">
<!-- SVG created with Arrow, by QuiverAI (https://quiver.ai) -->
  <style type="text/css">.cls-0 {fill:none;stroke:#181614;stroke-width:1.05;stroke-miterlimit:10;}</style>
  <path class="cls-0" d="m66.4 6.2c-2.5-0.2-4.1 1.1-6.2 3.5-3.6 4.4-7.5 11.9-7.5 21.6 0 6.6 1.6 13.3 5.2 19.7 3 5.5 8.8 11.3 8.7 14.8-0.1 0.6-0.4 1.2-1.3 1.1-2.6-0.3-5.4-6.1-10-11.4-2.7-3.2-6.4-6.5-10-8.7-4.7-3-11.4-6.1-20.2-6.3-3.7 0-7.5 0.6-10.7 1.6-2.3 0.7-4.9 2.2-5.8 3.3-3 3.7 0.7 7.9 1.2 11.3 0.4 2.3-2.9 2.6-5.9 5.8-1 1.1-1.6 2.5-1.1 4.6 1.1 3.9 6.4 10.5 13.1 14.1 5 3 11.7 5.6 20.2 5.7 4 0 8.3-0.6 12.3-1.7 3.9-1 8.3-2.8 10.6-2.7 1.1 0 1.9 0.4 1.7 1.2-0.5 2.2-5.4 3.2-8.6 4.3-7.2 2.2-14 5.6-19.2 10.8-6.3 6.5-11.3 15.5-11.3 26.1 0 5 0.8 6.7 3.5 8.5 3.3 1 6.3 0.2 8 0.2 1.3 0 2.3 1 2.6 2.5 0.7 4 1.9 7.7 5.9 7.7 2.8 0.1 6.3-0.9 8.8-1.9 8.2-3.3 15.5-9.8 19.2-18.5 2.3-5.5 3.3-10.3 3.3-18 0-3.3-0.3-11.5 2-11.5 1.7 0 1.8 4.2 1.8 6.5-0.1 5.9 0 13.5 3.7 21.7 2 4.2 4.7 8.8 8.7 12.5 4.3 4 10.8 8.8 18.8 9.2 2 0.1 3.2-0.4 4.2-1.4 1.5-1.3 2-3.8 2.5-6.5 0.3-1.3 1.3-2.3 2.8-2.3 3.2 0.3 8.5 1.3 10.2-3 0.8-2 1.3-11.2-2.7-19.7-3.3-7-9.3-13.8-16-17.8-3.3-2-7.5-3.7-12-5-2.3-0.7-6.8-1.5-7.8-4.2 0-1.5 2.5-1.8 7.5-0.3 4.8 1.5 9 3.3 17.8 3.3 6.5 0 13.5-1.3 20-5.3 4.5-2.5 11.2-8.2 12.5-13.7 1.2-4.8-4.8-6.8-6.8-9-1.5-1.8 0.5-3.5 1.8-8.3 1.5-6.5-7-9-14-9.9-7-0.7-13.3 0.7-18.3 2.9-4 1.7-7.2 3.8-10.2 6.3-7 6-11 14.2-13.8 16.7-1.2 0.8-2.7 1-2.9-0.5-0.1-3.2 5.9-8.7 8.9-14.2 2.8-4.8 5.3-11.3 5.3-20.3 0-9.7-4-18-8.3-22.5-1.5-1.5-3-3-5-2.9-3.7 0-6.2 4.4-8.5 4.8-1.2 0.4-2.2-0.4-3.7-1.8-1.5-1.3-3-2.8-5-3z"/>
  <path class="cls-0" d="m74.7 68.2c-5.6 0-10.6 4.7-10.6 10.9 0.3 5.8 4.3 10.8 11 10.8 5.8 0 10.3-4.3 10.5-10 0-2.8-0.7-5.5-2.5-7.5-2-2.3-4.5-4.2-8.4-4.2z"/>
</svg>
