<svg xmlns="http://www.w3.org/2000/svg" viewBox="0 0 100 100">
<!-- SVG created with Arrow, by QuiverAI (https://quiver.ai) -->
  <style type="text/css">.cls-0 {fill:#EFEFEF;}
.cls-1 {fill:#1D1D1B;}</style>
  <rect class="cls-0" y="-.2" width="100" height="99.9"/>
  <path class="cls-1" d="m50.1 44.6c-2.8 0-5.5 2.2-5.5 5.3s2.3 5.5 5.4 5.5c3.1 0.1 5.3-2.2 5.4-5 0.1-3.3-2.3-5.7-5.3-5.8z"/>
  <path class="cls-1" d="m95.2 46.9c-1.6-0.1-2.7 0.9-3 2.5h-31.5c-0.4 0-0.6 0.3-0.6 0.7 0 0.3 0.3 0.6 0.6 0.5h31.5c0.3 1.6 1.5 2.7 3.1 2.7 1.7 0 3.1-1.5 3.1-3.3 0-1.6-1.3-3.1-3.2-3.1z"/>
  <path class="cls-1" d="m50.6 91.5v-30.8c0-0.4-0.2-0.7-0.6-0.7-0.3 0-0.7 0.3-0.6 0.7v30.9c-1.5 0.2-2.7 1.6-2.7 3 0 1.8 1.4 3.5 3.4 3.5 1.6 0 3.1-1.5 3.1-3.3 0-1.7-1.1-3-2.6-3.3z"/>
  <path class="cls-1" d="m49.3 8.4v30.8c0 0.3 0.4 0.7 0.7 0.7s0.6-0.3 0.6-0.6v-30.9c1.5-0.3 2.5-1.5 2.5-3.1 0-1.7-1.3-3.2-3.1-3.2-1.8-0.1-3.3 1.4-3.3 3.1 0 1.6 1.1 3 2.6 3.2z"/>
  <path class="cls-1" d="m39.4 49.3h-31.4c-0.3-1.2-1.5-2.5-3.1-2.5-1.6-0.1-3 1.4-2.9 2.7-0.1 1.8 1.3 3.8 3.3 3.8 1.3 0 2.6-0.9 2.9-2.7h31.2c0.3 0 0.7-0.3 0.7-0.7-0.1-0.3-0.4-0.6-0.7-0.6z"/>
  <path class="cls-1" d="m57.7 43.1c0.2 0 0.3-0.1 0.4-0.2l19.3-19.4c0.5 0.4 1.1 0.5 1.8 0.5 1.7 0 3.2-1.4 3.2-3.3 0-1.6-1.3-3.3-3.3-3.3-1.6 0-3.2 1.3-3.2 3.2 0 0.7 0.3 1.4 0.6 1.9l-19.4 19.5c-0.3 0.3-0.3 0.7 0.1 1 0.2 0.1 0.3 0.1 0.5 0.1z"/>
  <path class="cls-1" d="m42.9 43c0.4-0.3 0.5-0.7 0.2-1l-19.5-19.5c0.3-0.5 0.6-1.1 0.6-1.8 0-1.8-1.5-3.3-3.4-3.3-1.7 0-3.4 1.3-3.3 3.3 0 1.3 1 3.2 3.3 3.2 0.6 0 1.2-0.1 1.7-0.4l19.5 19.5c0.2 0.2 0.3 0.1 0.4 0.1 0.2 0 0.3 0 0.5-0.1z"/>
  <path class="cls-1" d="m79.1 76.2c-0.5 0-1.2 0.2-1.7 0.5l-19.3-19.5c-0.3-0.3-0.7-0.3-0.9 0-0.3 0.3-0.3 0.7 0 1l19.3 19.4c-0.3 0.4-0.5 1-0.5 1.7 0 1.7 1.4 3.1 3 3.1 2.1 0.1 3.4-1.4 3.4-3.2 0-1.6-1.4-3-3.3-3z"/>
  <path class="cls-1" d="m41.9 57.2-19.3 19.5c-0.5-0.3-1.1-0.5-1.8-0.5-1.7 0-3.4 1.3-3.3 3.2 0 1.6 1.4 3 3.3 3 1.8 0 3.4-1.5 3.4-3.2 0-0.6-0.2-1.2-0.6-1.7l19.3-19.4c0.3-0.2 0.4-0.6 0-1-0.3-0.3-0.7-0.2-1 0.1z"/>
</svg>
